<svg xmlns="http://www.w3.org/2000/svg" width="64" height="64" id="science"><path style="line-height:normal;text-indent:0;text-align:start;text-decoration-line:none;text-decoration-style:solid;text-decoration-color:#000;text-transform:none;block-progression:tb;isolation:auto;mix-blend-mode:normal" d="M24 0C10.751 0 0 10.749 0 23.998 0 37.248 10.752 48 24 48s24-10.753 24-24.002C48 10.748 37.249 0 24 0zm0 1.008c12.704 0 22.992 10.285 22.992 22.99 0 12.705-10.288 22.994-22.992 22.994S1.008 36.702 1.008 23.998c0-12.705 10.288-22.99 22.992-22.99zM26 12a2.506 2.506 0 0 0-2.5 2.5c0 1.047.653 1.946 1.57 2.316l-.945 5.196c-.042 0-.082-.012-.125-.012-1.44 0-2.679.875-3.215 2.121L15.48 22.7c.006-.067.02-.13.02-.199 0-1.376-1.124-2.5-2.5-2.5a2.506 2.506 0 0 0-2.5 2.5c0 1.376 1.124 2.5 2.5 2.5.955 0 1.779-.549 2.2-1.34l5.341 1.432c-.016.135-.041.268-.041.408 0 .785.269 1.502.707 2.086l-2.973 2.973A2.974 2.974 0 0 0 16.5 30c-1.653 0-3 1.347-3 3s1.347 3 3 3 3-1.347 3-3c0-.646-.211-1.242-.56-1.732l2.974-2.975A3.468 3.468 0 0 0 24 29c.784 0 1.5-.27 2.084-.707l3.701 3.7c-.176.296-.285.639-.285 1.007 0 1.1.9 2 2 2s2-.9 2-2-.9-2-2-2c-.37 0-.712.106-1.01.283l-3.697-3.697c.438-.584.707-1.3.707-2.086 0-.14-.025-.273-.041-.408l5.342-1.432A2.496 2.496 0 0 0 35 25c1.376 0 2.5-1.124 2.5-2.5S36.376 20 35 20a2.506 2.506 0 0 0-2.5 2.5c0 .068.014.132.02.2l-5.305 1.421a3.503 3.503 0 0 0-2.106-1.924l.946-5.203A2.502 2.502 0 0 0 28.5 14.5c0-1.376-1.124-2.5-2.5-2.5zm0 1c.84 0 1.5.66 1.5 1.5S26.84 16 26 16s-1.5-.66-1.5-1.5.66-1.5 1.5-1.5zm-13 8c.84 0 1.5.66 1.5 1.5S13.84 24 13 24s-1.5-.66-1.5-1.5.66-1.5 1.5-1.5zm22 0c.84 0 1.5.66 1.5 1.5S35.84 24 35 24s-1.5-.66-1.5-1.5.66-1.5 1.5-1.5zm-11 2c1.394 0 2.5 1.106 2.5 2.5S25.394 28 24 28a2.484 2.484 0 0 1-2.5-2.5c0-1.394 1.106-2.5 2.5-2.5zm0 1c-.822 0-1.5.678-1.5 1.5S23.178 27 24 27s1.5-.678 1.5-1.5S24.822 24 24 24zm0 1c.286 0 .5.214.5.5 0 .286-.214.5-.5.5a.488.488 0 0 1-.5-.5c0-.286.214-.5.5-.5zm-7.5 6c1.117 0 2 .883 2 2s-.883 2-2 2-2-.883-2-2 .883-2 2-2zm15 1c.563 0 1 .437 1 1s-.437 1-1 1-1-.437-1-1 .437-1 1-1z" color="#000" font-family="sans-serif" font-weight="400" overflow="visible"></path></svg>